<?xml version="1.0" encoding="UTF-8"?>
<svg width="139px" height="25px" viewBox="0 0 139 25" version="1.1" xmlns="http://www.w3.org/2000/svg" xmlns:xlink="http://www.w3.org/1999/xlink">
    <!-- Generator: Sketch 52.2 (67145) - http://www.bohemiancoding.com/sketch -->
    <title>digitec_connect_rgb</title>
    <desc>Created with Sketch.</desc>
    <defs>
        <polygon id="path-1" points="0.0294117647 0.025 69.1377451 0.025 69.1377451 25 0.0294117647 25"></polygon>
    </defs>
    <g id="Onboarding-ID" stroke="none" stroke-width="1" fill="none" fill-rule="evenodd">
        <g id="Onboarding-Desktop" transform="translate(-32.000000, -27.000000)">
            <g id="header" transform="translate(8.000000, 8.000000)">
                <g id="digitec_connect_rgb" transform="translate(24.000000, 19.000000)">
                    <g id="Group-8">
                        <mask id="mask-2" fill="white">
                            <use xlink:href="#path-1"></use>
                        </mask>
                        <g id="Clip-2"></g>
                        <polyline id="Fill-1" fill="#D82333" mask="url(#mask-2)" points="0 0.0946078431 7.98186275 0.0960784314 0 8.39607843 0 0.0946078431"></polyline>
                        <path d="M22.3529412,0.0946078431 L19.1343137,10.1887255 C18.4955882,9.15588235 17.6730392,8.38921569 16.6681373,7.88235294 C15.6642157,7.37941176 14.3803922,7.125 13.0044118,7.125 C12.3995098,7.125 12.0406863,7.1622549 11.5455882,7.21911765 C11.0495098,7.275 10.2710784,7.48186275 9.64705882,7.73235294 C7.63823529,8.54362745 5.77107843,10.170098 4.52205882,12.4181373 C3.27303922,14.6661765 2.87843137,17.1093137 3.25098039,19.245098 C3.62401961,21.3794118 4.7627451,23.2044118 6.57990196,24.2142157 C8.39705882,25.2240196 10.5485294,25.227451 12.5573529,24.4151961 C13.6480392,23.9745098 14.6985294,23.2941176 15.6289216,22.4039216 L15.6210784,22.4357843 L14.8808824,24.6068627 L21.5416667,24.6068627 C21.795098,23.529902 22.1343137,22.2926471 22.5651961,20.8936275 C22.5980392,20.7593137 22.6328431,20.6544118 22.6617647,20.579902 L29.3151961,0.0946078431 L22.3529412,0.0946078431 Z M16.902451,17.3107843 C15.8406863,20.0397059 13.4833333,21.6710784 11.6382353,20.9529412 C9.79215686,20.2357843 9.15784314,17.4416667 10.2196078,14.7117647 C11.2818627,11.9813725 13.6392157,10.35 15.4838235,11.0681373 C17.3289216,11.7852941 17.9647059,14.5803922 16.902451,17.3107843 Z" id="Fill-3" fill="#165590" mask="url(#mask-2)"></path>
                        <path d="M51.3318627,0.025 L53.2838235,0.025 L53.2838235,8.46715686 C53.2838235,8.66813725 53.2887255,8.86764706 53.2965686,9.06666667 C53.3058824,9.26372549 53.3186275,9.4254902 53.3372549,9.54754902 L51.3715686,9.54754902 L51.3196078,8.58431373 C51.2485294,8.70882353 51.1691176,8.83088235 51.0813725,8.95490196 C50.9931373,9.07696078 50.847549,9.20490196 50.6465686,9.3372549 C50.4004902,9.49411765 50.1598039,9.59166667 49.927451,9.62794118 C49.6941176,9.6622549 49.5034314,9.67990196 49.3534314,9.67990196 C48.4563725,9.67990196 47.7593137,9.38970588 47.2632353,8.80980392 C46.7661765,8.22892157 46.5176471,7.41568627 46.5176471,6.36862745 C46.5176471,5.81470588 46.5897059,5.31862745 46.7348039,4.87941176 C46.879902,4.43921569 47.079902,4.06617647 47.3352941,3.75833333 C47.5897059,3.44901961 47.8980392,3.2122549 48.2588235,3.04607843 C48.6191176,2.87892157 49.0191176,2.79509804 49.4593137,2.79509804 C49.7578431,2.79509804 50.0147059,2.83235294 50.2303922,2.90637255 C50.4455882,2.98235294 50.6289216,3.06666667 50.7779412,3.16323529 C50.9279412,3.26078431 51.0460784,3.35980392 51.1348039,3.46078431 C51.2215686,3.56176471 51.2882353,3.64313725 51.3318627,3.70490196 L51.3318627,0.025 Z M48.4960784,6.31666667 C48.4960784,6.59754902 48.5205882,6.86372549 48.5691176,7.11470588 C48.6166667,7.36421569 48.6936275,7.5877451 48.7990196,7.78039216 C48.904902,7.9745098 49.0431373,8.12794118 49.2151961,8.24166667 C49.3862745,8.35637255 49.595098,8.41372549 49.8411765,8.41372549 C50.122549,8.41372549 50.3735294,8.33823529 50.5931373,8.18921569 C50.8127451,8.04068627 50.9754902,7.86421569 51.0813725,7.66176471 C51.2308824,7.38088235 51.320098,7.09019608 51.3519608,6.79068627 C51.3818627,6.49215686 51.3985294,6.25980392 51.3985294,6.09215686 C51.3985294,5.43235294 51.2681373,4.93186275 51.0093137,4.58872549 C50.75,4.24607843 50.3955882,4.0745098 49.9470588,4.0745098 C49.6220588,4.0745098 49.3627451,4.16029412 49.1686275,4.33088235 C48.9759804,4.50196078 48.8303922,4.70735294 48.7343137,4.94411765 C48.6367647,5.18235294 48.5730392,5.42794118 48.5426471,5.68333333 C48.5112745,5.93872549 48.4960784,6.1504902 48.4960784,6.31666667 Z" id="Fill-4" fill="#165590" mask="url(#mask-2)"></path>
                        <path d="M55.0901961,1.7254902 L57.1745098,1.7254902 L57.1745098,0.0245098039 L55.0901961,0.0245098039 L55.0901961,1.7254902 Z M55.1563725,9.54803922 L57.1083333,9.54803922 L57.1083333,2.8745098 L55.1563725,2.8745098 L55.1563725,9.54803922 Z" id="Fill-5" fill="#165590" mask="url(#mask-2)"></path>
                        <path d="M65.2730392,2.91421569 C65.2465686,3.17794118 65.2245098,3.43431373 65.2073529,3.68578431 C65.1897059,3.93529412 65.1803922,4.22843137 65.1803922,4.5627451 L65.1803922,9.48186275 C65.1803922,10.097549 65.0686275,10.5843137 64.8446078,10.9387255 C64.6205882,11.2955882 64.3392157,11.5661765 64.0009804,11.7495098 C63.6617647,11.9357843 63.2995098,12.0514706 62.9122549,12.0995098 C62.5254902,12.1480392 62.1735294,12.172549 61.8578431,12.172549 C61.6196078,12.172549 61.3382353,12.154902 61.0127451,12.1205882 C60.6877451,12.0843137 60.375,11.9960784 60.0764706,11.8553922 C59.7779412,11.7147059 59.5176471,11.502451 59.2980392,11.2161765 C59.0784314,10.9303922 58.9553922,10.5367647 58.929902,10.0362745 L60.8014706,10.0362745 C60.8107843,10.0897059 60.8259804,10.1651961 60.8480392,10.2671569 C60.870098,10.3681373 60.9210784,10.4691176 61,10.5705882 C61.0794118,10.6715686 61.1931373,10.7622549 61.3426471,10.8401961 C61.4926471,10.920098 61.6985294,10.9598039 61.9622549,10.9598039 C62.252451,10.9598039 62.5107843,10.8887255 62.7338235,10.7480392 C62.9588235,10.6078431 63.1053922,10.3882353 63.1764706,10.0897059 C63.1936275,10.0093137 63.2098039,9.92794118 63.222549,9.84558824 C63.2357843,9.76078431 63.2436275,9.66421569 63.2485294,9.55490196 C63.2529412,9.44460784 63.2578431,9.30637255 63.2622549,9.13921569 C63.2656863,8.97205882 63.2681373,8.76029412 63.2681373,8.50588235 C63.1098039,8.70833333 62.9519608,8.87058824 62.7941176,8.99411765 C62.6348039,9.11715686 62.4769608,9.21029412 62.3191176,9.27156863 C62.1607843,9.33186275 62.0088235,9.37156863 61.8632353,9.38872549 C61.7181373,9.40735294 61.5892157,9.41666667 61.4740196,9.41666667 C61,9.41666667 60.5843137,9.32254902 60.2284314,9.13186275 C59.8720588,8.94264706 59.5803922,8.69411765 59.3514706,8.3872549 C59.122549,8.07941176 58.9504902,7.73137255 58.8367647,7.33823529 C58.7220588,6.94803922 58.6661765,6.5495098 58.6661765,6.14509804 C58.6661765,5.72352941 58.7245098,5.31323529 58.8436275,4.91813725 C58.9622549,4.52352941 59.1401961,4.17107843 59.3769608,3.86323529 C59.6151961,3.55539216 59.9112745,3.30931373 60.2681373,3.1254902 C60.6240196,2.93970588 61.0397059,2.84656863 61.5147059,2.84656863 C61.8132353,2.84656863 62.070098,2.88284314 62.2862745,2.95245098 C62.5014706,3.0245098 62.6813725,3.10931373 62.8264706,3.21029412 C62.9720588,3.31127451 63.0852941,3.41715686 63.1691176,3.52647059 C63.2529412,3.63676471 63.3215686,3.72647059 63.3735294,3.79705882 L63.4401961,2.91421569 L65.2730392,2.91421569 Z M60.6181373,6.14509804 C60.6181373,6.22401961 60.6240196,6.37058824 60.6377451,6.58676471 C60.6504902,6.80245098 60.6980392,7.02009804 60.7818627,7.24068627 C60.8666667,7.45931373 60.9955882,7.65539216 61.1710784,7.82647059 C61.347549,7.99803922 61.5970588,8.08431373 61.9235294,8.08431373 C62.2666667,8.08431373 62.5303922,7.99803922 62.7151961,7.82647059 C62.9,7.65539216 63.0357843,7.45931373 63.1230392,7.24068627 C63.2112745,7.02009804 63.2622549,6.80637255 63.275,6.6004902 C63.2892157,6.39362745 63.2946078,6.25539216 63.2946078,6.18480392 C63.2946078,6 63.2818627,5.78970588 63.2553922,5.55245098 C63.2284314,5.31323529 63.1691176,5.09264706 63.077451,4.88578431 C62.9843137,4.67794118 62.8509804,4.50490196 62.6754902,4.36421569 C62.4990196,4.22352941 62.2617647,4.15245098 61.9622549,4.15245098 C61.5926471,4.15245098 61.2769608,4.30735294 61.0127451,4.61519608 C60.7490196,4.92303922 60.6181373,5.43284314 60.6181373,6.14509804 Z" id="Fill-6" fill="#165590" mask="url(#mask-2)"></path>
                        <path d="M67.0534314,1.7254902 L69.1377451,1.7254902 L69.1377451,0.0245098039 L67.0534314,0.0245098039 L67.0534314,1.7254902 Z M67.1196078,9.54803922 L69.0715686,9.54803922 L69.0715686,2.8745098 L67.1196078,2.8745098 L67.1196078,9.54803922 Z" id="Fill-7" fill="#165590" mask="url(#mask-2)"></path>
                    </g>
                    <path d="M74.9676471,9.45637255 C74.6514706,9.54313725 74.3593137,9.60098039 74.0906863,9.62696078 C73.8220588,9.65343137 73.6093137,9.66764706 73.4504902,9.66764706 C72.9553922,9.66764706 72.5745098,9.59901961 72.3093137,9.46323529 C72.0436275,9.32696078 71.8490196,9.16421569 71.725,8.97647059 C71.6009804,8.78823529 71.527451,8.59264706 71.5053922,8.39068627 C71.4833333,8.18872549 71.4730392,8.01764706 71.4730392,7.87696078 L71.4730392,4.23235294 L70.1926471,4.23235294 L70.1926471,2.92647059 L71.4730392,2.92647059 L71.4730392,1.62058824 L73.4245098,0.909803922 L73.4245098,2.92647059 L75.0073529,2.92647059 L75.0073529,4.23235294 L73.4245098,4.23235294 L73.4245098,7.22990196 C73.4245098,7.37892157 73.4303922,7.51470588 73.4446078,7.6377451 C73.4573529,7.75980392 73.4911765,7.86568627 73.5431373,7.95294118 C73.5955882,8.03970588 73.6818627,8.10588235 73.8,8.15 C73.9186275,8.19411765 74.0882353,8.21617647 74.3078431,8.21617647 C74.4578431,8.21617647 74.5740196,8.21421569 74.6573529,8.20931373 C74.7411765,8.20490196 74.8446078,8.19411765 74.9676471,8.17598039 L74.9676471,9.45637255" id="Fill-9" fill="#165590"></path>
                    <path d="M77.8823529,6.7122549 C77.8823529,6.81813725 77.8897059,6.97156863 77.902451,7.17254902 C77.9147059,7.37598039 77.9661765,7.57352941 78.054902,7.76764706 C78.1416667,7.96029412 78.2764706,8.12990196 78.4563725,8.275 C78.6362745,8.42058824 78.8980392,8.49264706 79.2411765,8.49264706 C79.4867647,8.49264706 79.7181373,8.43088235 79.9343137,8.30784314 C80.1490196,8.18578431 80.304902,7.93921569 80.4014706,7.56862745 L82.1823529,7.56862745 C82.1730392,7.64901961 82.1622549,7.74313725 82.15,7.85245098 C82.1372549,7.9627451 82.1078431,8.07990196 82.0637255,8.20196078 C82.0196078,8.32647059 81.9558824,8.45735294 81.8735294,8.59852941 C81.7887255,8.73872549 81.6818627,8.87941176 81.5490196,9.02009804 C81.3029412,9.2754902 80.9764706,9.46813725 80.5676471,9.60098039 C80.1573529,9.73333333 79.7068627,9.79852941 79.2151961,9.79852941 C79.0735294,9.79852941 78.904902,9.78921569 78.7078431,9.77303922 C78.5098039,9.75392157 78.3019608,9.71470588 78.0872549,9.65294118 C77.8710784,9.59264706 77.6573529,9.50784314 77.4441176,9.40196078 C77.2318627,9.29754902 77.0367647,9.15245098 76.8602941,8.96666667 C76.55,8.6504902 76.3289216,8.27254902 76.1955882,7.83382353 C76.0632353,7.39362745 75.9965686,6.90539216 75.9965686,6.36862745 C75.9965686,6.09705882 76.0166667,5.81568627 76.0558824,5.5254902 C76.0955882,5.23578431 76.1666667,4.95147059 76.2686275,4.675 C76.3710784,4.39705882 76.5117647,4.13333333 76.6941176,3.88235294 C76.875,3.63284314 77.1078431,3.40980392 77.3911765,3.21666667 C77.6480392,3.04117647 77.9328431,2.90539216 78.245098,2.80882353 C78.5573529,2.71127451 78.8980392,2.66372549 79.2671569,2.66372549 C79.5044118,2.66372549 79.7509804,2.68921569 80.0063725,2.74166667 C80.2607843,2.79509804 80.5073529,2.88186275 80.745098,3.00637255 C80.9823529,3.12941176 81.2063725,3.29460784 81.4166667,3.5 C81.6284314,3.70686275 81.8083333,3.96470588 81.9578431,4.27156863 C82.0735294,4.50147059 82.1583333,4.72941176 82.2151961,4.95686275 C82.2730392,5.1872549 82.3127451,5.40882353 82.3348039,5.625 C82.3568627,5.84019608 82.3671569,6.03970588 82.3671569,6.22352941 C82.3671569,6.40833333 82.3627451,6.57205882 82.3544118,6.7122549 L77.8823529,6.7122549 Z M80.3622549,5.48431373 C80.3622549,5.40686275 80.3558824,5.28480392 80.3421569,5.12303922 C80.3294118,4.95931373 80.2848039,4.79558824 80.2107843,4.62794118 C80.1352941,4.4622549 80.0191176,4.31470588 79.8612745,4.18578431 C79.7029412,4.05882353 79.4838235,3.99509804 79.2009804,3.99509804 C78.9911765,3.99509804 78.8073529,4.03676471 78.6539216,4.11911765 C78.5009804,4.20441176 78.3730392,4.31470588 78.2715686,4.4504902 C78.1705882,4.58676471 78.0941176,4.74558824 78.0401961,4.9245098 C77.9882353,5.10490196 77.9568627,5.29166667 77.9490196,5.48431373 L80.3622549,5.48431373 Z" id="Fill-10" fill="#165590"></path>
                    <path d="M87.4519608,5.24803922 C87.4431373,5.18627451 87.4303922,5.08970588 87.4127451,4.95735294 C87.395098,4.82598039 87.3558824,4.69019608 87.2941176,4.54803922 C87.2323529,4.40784314 87.147549,4.28578431 87.0387255,4.17990196 C86.9279412,4.0745098 86.7818627,4.02107843 86.5980392,4.02107843 C86.3691176,4.02107843 86.1877451,4.09852941 86.052451,4.25196078 C85.9166667,4.40539216 85.8132353,4.59362745 85.7431373,4.81323529 C85.6735294,5.03284314 85.6269608,5.26372549 85.604902,5.50539216 C85.5838235,5.74754902 85.572549,5.95980392 85.572549,6.14607843 C85.572549,6.24215686 85.5769608,6.37843137 85.5852941,6.55343137 C85.5941176,6.72892157 85.6142157,6.91960784 85.6446078,7.12058824 C85.675,7.32254902 85.7235294,7.52156863 85.7887255,7.71421569 C85.854902,7.90833333 85.9426471,8.06617647 86.0568627,8.18970588 C86.1534314,8.28578431 86.2470588,8.34754902 86.3392157,8.37303922 C86.4308824,8.40098039 86.5112745,8.41372549 86.5808824,8.41372549 C86.6333333,8.41372549 86.7053922,8.40343137 86.7970588,8.37990196 C86.8887255,8.35931373 86.9808824,8.30539216 87.0720588,8.22303922 C87.1642157,8.13823529 87.2485294,8.01176471 87.3279412,7.84117647 C87.4058824,7.66764706 87.4544118,7.43333333 87.4720588,7.13431373 L89.3970588,7.13431373 C89.3892157,7.26568627 89.375,7.41127451 89.3573529,7.56911765 C89.3401961,7.72843137 89.3029412,7.89215686 89.2460784,8.06421569 C89.1887255,8.23480392 89.1058824,8.41127451 88.995098,8.59117647 C88.8848039,8.77156863 88.7338235,8.94117647 88.5406863,9.09901961 C88.3029412,9.30147059 88.0333333,9.45588235 87.7289216,9.56127451 C87.4254902,9.66715686 87.0632353,9.71960784 86.6411765,9.71960784 C86.1926471,9.71960784 85.7789216,9.65784314 85.4004902,9.53480392 C85.022549,9.41176471 84.679902,9.17843137 84.3720588,8.83529412 C84.0818627,8.50196078 83.8691176,8.11519608 83.7323529,7.675 C83.5960784,7.23578431 83.5289216,6.74754902 83.5289216,6.21078431 C83.5289216,5.45441176 83.65,4.84803922 83.8911765,4.39166667 C84.1328431,3.93382353 84.4210784,3.58431373 84.754902,3.34117647 C85.0892157,3.0995098 85.4318627,2.94264706 85.7838235,2.86715686 C86.1348039,2.79264706 86.4205882,2.75441176 86.6411765,2.75441176 C86.9480392,2.75441176 87.2627451,2.80196078 87.5833333,2.89362745 C87.9053922,2.98578431 88.1970588,3.13088235 88.4607843,3.32990196 C88.7245098,3.52696078 88.9406863,3.78382353 89.1078431,4.10098039 C89.2740196,4.41715686 89.3573529,4.7995098 89.3573529,5.24803922 L87.4519608,5.24803922" id="Fill-11" fill="#165590"></path>
                    <path d="M99.3495098,5.14362745 C99.3161765,4.65441176 99.1519608,4.29166667 98.8553922,4.05490196 C98.5607843,3.81764706 98.1470588,3.7004902 97.6161765,3.7004902 C97.3196078,3.7004902 97.0558824,3.77107843 96.825,3.91519608 C96.5926471,4.05833333 96.3965686,4.25 96.2357843,4.49068627 C96.0754902,4.73235294 95.9509804,5.01323529 95.8632353,5.33284314 C95.7745098,5.65441176 95.7303922,5.99509804 95.7303922,6.35882353 C95.7303922,6.72107843 95.7745098,7.06519608 95.8632353,7.39019608 C95.9509804,7.71470588 96.0754902,7.99901961 96.2357843,8.24411765 C96.3965686,8.48921569 96.5926471,8.68333333 96.825,8.82647059 C97.0558824,8.97058824 97.3196078,9.04117647 97.6161765,9.04117647 C98.1137255,9.04117647 98.5191176,8.90441176 98.8308824,8.62990196 C99.1426471,8.35686275 99.3161765,7.99901961 99.3495098,7.56127451 L100.172059,7.56127451 C99.970098,9.0122549 99.1426471,9.7372549 97.6916667,9.7372549 C97.2196078,9.7372549 96.8073529,9.64313725 96.4578431,9.45245098 C96.1083333,9.26323529 95.8186275,9.0122549 95.5911765,8.70098039 C95.3617647,8.38823529 95.1916667,8.02794118 95.077451,7.62401961 C94.9647059,7.21862745 94.9068627,6.80147059 94.9068627,6.37156863 C94.9068627,5.94166667 94.9661765,5.52352941 95.0843137,5.11911765 C95.2029412,4.71372549 95.3794118,4.35441176 95.6166667,4.04215686 C95.852451,3.72941176 96.147549,3.47843137 96.5014706,3.28921569 C96.8563725,3.09852941 97.270098,3.00441176 97.7426471,3.00441176 C98.0715686,3.00441176 98.3789216,3.05343137 98.6661765,3.1495098 C98.9529412,3.24754902 99.2053922,3.38578431 99.425,3.56813725 C99.6446078,3.7495098 99.820098,3.97254902 99.9514706,4.23823529 C100.081373,4.50441176 100.155882,4.80637255 100.172059,5.14362745 L99.3495098,5.14362745" id="Fill-12" fill="#165590"></path>
                    <path d="M104.209314,3.00441176 C104.715686,3.00441176 105.155392,3.10098039 105.52598,3.29509804 C105.897549,3.48921569 106.205392,3.74460784 106.44951,4.06078431 C106.694608,4.37794118 106.87598,4.73823529 106.994608,5.14362745 C107.112745,5.54803922 107.171078,5.95784314 107.171078,6.37058824 C107.171078,6.79313725 107.112745,7.20343137 106.994608,7.60539216 C106.87598,8.00637255 106.694608,8.36421569 106.44951,8.68137255 C106.205392,8.99754902 105.897549,9.25294118 105.52598,9.44705882 C105.155392,9.64117647 104.715686,9.7372549 104.209314,9.7372549 C103.702941,9.7372549 103.263725,9.64117647 102.893137,9.44705882 C102.521569,9.25294118 102.214706,8.99754902 101.969608,8.68137255 C101.72451,8.36421569 101.543137,8.00637255 101.42549,7.60539216 C101.307353,7.20343137 101.248039,6.79313725 101.248039,6.37058824 C101.248039,5.95784314 101.307353,5.54803922 101.42549,5.14362745 C101.543137,4.73823529 101.72451,4.37794118 101.969608,4.06078431 C102.214706,3.74460784 102.521569,3.48921569 102.893137,3.29509804 C103.263725,3.10098039 103.702941,3.00441176 104.209314,3.00441176 M106.348039,6.37058824 C106.348039,6.07647059 106.308824,5.77009804 106.228431,5.45294118 C106.147549,5.13676471 106.023039,4.85098039 105.855392,4.59313725 C105.686275,4.33627451 105.465686,4.12254902 105.191176,3.95294118 C104.915686,3.78529412 104.589216,3.7004902 104.209314,3.7004902 C103.829902,3.7004902 103.503431,3.78529412 103.228922,3.95294118 C102.954412,4.12254902 102.732843,4.33627451 102.564706,4.59313725 C102.396078,4.85098039 102.271569,5.13676471 102.191667,5.45294118 C102.110294,5.77009804 102.070588,6.07647059 102.070588,6.37058824 C102.070588,6.66568627 102.110294,6.97254902 102.191667,7.28970588 C102.271569,7.60539216 102.396078,7.89264706 102.564706,8.1495098 C102.732843,8.40588235 102.954412,8.61960784 103.228922,8.78921569 C103.503431,8.95784314 103.829902,9.04166667 104.209314,9.04166667 C104.589216,9.04166667 104.915686,8.95784314 105.191176,8.78921569 C105.465686,8.61960784 105.686275,8.40588235 105.855392,8.1495098 C106.023039,7.89264706 106.147549,7.60539216 106.228431,7.28970588 C106.308824,6.97254902 106.348039,6.66568627 106.348039,6.37058824" id="Fill-13" fill="#165590"></path>
                    <path d="M109.50049,9.54803922 L108.740686,9.54803922 L108.740686,4.6254902 C108.740686,4.38039216 108.734804,4.13529412 108.722059,3.89117647 C108.709804,3.64607843 108.694118,3.41323529 108.677941,3.19411765 L109.462255,3.19411765 L109.50049,4.13039216 L109.526471,4.15588235 C109.744608,3.75980392 110.027941,3.46960784 110.373039,3.28235294 C110.719118,3.09754902 111.09951,3.00441176 111.512745,3.00441176 C111.859314,3.00441176 112.154412,3.05098039 112.39951,3.14313725 C112.643137,3.23578431 112.848039,3.35686275 113.012745,3.50441176 C113.176471,3.65196078 113.309804,3.82009804 113.411765,4.00980392 C113.512745,4.2 113.587745,4.39068627 113.638725,4.57990196 C113.689216,4.77058824 113.720098,4.95392157 113.734314,5.13088235 C113.747059,5.30833333 113.752941,5.45588235 113.752941,5.57352941 L113.752941,9.54803922 L112.993137,9.54803922 L112.993137,5.44803922 C112.993137,4.89019608 112.845588,4.46029412 112.55049,4.15588235 C112.255392,3.85245098 111.845098,3.7004902 111.322549,3.7004902 C111.010784,3.7004902 110.740196,3.76078431 110.512255,3.88382353 C110.285294,4.00588235 110.095588,4.16862745 109.943137,4.37107843 C109.791176,4.5745098 109.679412,4.80637255 109.607843,5.06813725 C109.536765,5.32941176 109.50049,5.60245098 109.50049,5.89068627 L109.50049,9.54803922" id="Fill-14" fill="#165590"></path>
                    <path d="M116.44951,9.54803922 L115.689706,9.54803922 L115.689706,4.6254902 C115.689706,4.38039216 115.683824,4.13529412 115.669608,3.89117647 C115.657353,3.64607843 115.643137,3.41323529 115.62549,3.19411765 L116.411275,3.19411765 L116.44951,4.13039216 L116.475,4.15588235 C116.693627,3.75980392 116.97549,3.46960784 117.322059,3.28235294 C117.668137,3.09754902 118.048039,3.00441176 118.461275,3.00441176 C118.806373,3.00441176 119.101961,3.05098039 119.347059,3.14313725 C119.592157,3.23578431 119.796569,3.35686275 119.960294,3.50441176 C120.12549,3.65196078 120.257843,3.82009804 120.359804,4.00980392 C120.460784,4.2 120.538235,4.39068627 120.587745,4.57990196 C120.637745,4.77058824 120.670098,4.95392157 120.682843,5.13088235 C120.694608,5.30833333 120.701961,5.45588235 120.701961,5.57352941 L120.701961,9.54803922 L119.941667,9.54803922 L119.941667,5.44803922 C119.941667,4.89019608 119.794118,4.46029412 119.49902,4.15588235 C119.203922,3.85245098 118.795098,3.7004902 118.271078,3.7004902 C117.959804,3.7004902 117.689216,3.76078431 117.461275,3.88382353 C117.233333,4.00588235 117.044608,4.16862745 116.892157,4.37107843 C116.740196,4.5745098 116.626961,4.80637255 116.556373,5.06813725 C116.484314,5.32941176 116.44951,5.60245098 116.44951,5.89068627 L116.44951,9.54803922" id="Fill-15" fill="#165590"></path>
                    <path d="M123.118627,6.54803922 C123.126961,6.88627451 123.173529,7.20539216 123.257843,7.50980392 C123.341667,7.81421569 123.473039,8.07941176 123.65049,8.30833333 C123.827451,8.53578431 124.053431,8.71470588 124.326961,8.84607843 C124.60098,8.97647059 124.933333,9.04117647 125.321078,9.04117647 C125.54902,9.04117647 125.761765,9.00294118 125.960294,8.92745098 C126.157843,8.85098039 126.339216,8.74754902 126.504412,8.61029412 C126.669118,8.47696078 126.806373,8.31519608 126.916176,8.13039216 C127.02451,7.94460784 127.105882,7.74215686 127.157353,7.52303922 L127.954412,7.52303922 C127.758824,8.29068627 127.42402,8.85098039 126.948039,9.20637255 C126.470098,9.56078431 125.84902,9.7372549 125.080882,9.7372549 C124.607843,9.7372549 124.196569,9.64313725 123.847059,9.45245098 C123.496078,9.26323529 123.206863,9.0122549 122.978922,8.70098039 C122.752451,8.38823529 122.580882,8.02794118 122.466667,7.62401961 C122.352941,7.21862745 122.296078,6.80147059 122.296078,6.37156863 C122.296078,5.94166667 122.355392,5.52352941 122.472549,5.11911765 C122.591176,4.71372549 122.767647,4.35441176 123.004902,4.04215686 C123.240196,3.72941176 123.535784,3.47843137 123.891176,3.28921569 C124.245588,3.09852941 124.657843,3.00441176 125.130882,3.00441176 C125.661765,3.00441176 126.111765,3.09509804 126.479902,3.27647059 C126.845588,3.45784314 127.145588,3.70980392 127.377941,4.02941176 C127.608824,4.35 127.77598,4.72647059 127.878431,5.15637255 C127.979412,5.58627451 128.029902,6.0495098 128.029902,6.54803922 L123.118627,6.54803922 Z M127.206863,5.85196078 C127.181373,5.54901961 127.122059,5.26421569 127.029412,4.99803922 C126.936275,4.73186275 126.806373,4.50441176 126.636765,4.31372549 C126.468137,4.1245098 126.259314,3.9745098 126.010294,3.86421569 C125.761765,3.75637255 125.472549,3.7004902 125.143627,3.7004902 C124.831863,3.7004902 124.556863,3.75980392 124.321078,3.87696078 C124.085294,3.99656863 123.884314,4.15588235 123.720588,4.35784314 C123.555392,4.56127451 123.425,4.79019608 123.327451,5.04803922 C123.231373,5.30588235 123.169608,5.57352941 123.144118,5.85196078 L127.206863,5.85196078 Z" id="Fill-16" fill="#165590"></path>
                    <path d="M133.72451,5.14362745 C133.692157,4.65441176 133.527451,4.29166667 133.230882,4.05490196 C132.935784,3.81764706 132.523529,3.7004902 131.991176,3.7004902 C131.696078,3.7004902 131.430882,3.77107843 131.20049,3.91519608 C130.967647,4.05833333 130.771569,4.25 130.610784,4.49068627 C130.451961,4.73235294 130.32598,5.01323529 130.238235,5.33284314 C130.15,5.65441176 130.105392,5.99509804 130.105392,6.35882353 C130.105392,6.72107843 130.15,7.06519608 130.238235,7.39019608 C130.32598,7.71470588 130.451961,7.99901961 130.610784,8.24411765 C130.771569,8.48921569 130.967647,8.68333333 131.20049,8.82647059 C131.430882,8.97058824 131.696078,9.04117647 131.991176,9.04117647 C132.488725,9.04117647 132.894118,8.90441176 133.206373,8.62990196 C133.517647,8.35686275 133.692157,7.99901961 133.72451,7.56127451 L134.548529,7.56127451 C134.345098,9.0122549 133.517647,9.7372549 132.066667,9.7372549 C131.595098,9.7372549 131.182353,9.64313725 130.833333,9.45245098 C130.483333,9.26323529 130.194118,9.0122549 129.966176,8.70098039 C129.737255,8.38823529 129.568137,8.02794118 129.452451,7.62401961 C129.340196,7.21862745 129.282843,6.80147059 129.282843,6.37156863 C129.282843,5.94166667 129.342647,5.52352941 129.459804,5.11911765 C129.577941,4.71372549 129.754412,4.35441176 129.991667,4.04215686 C130.227451,3.72941176 130.523039,3.47843137 130.876961,3.28921569 C131.231373,3.09852941 131.645098,3.00441176 132.118137,3.00441176 C132.447059,3.00441176 132.754412,3.05343137 133.041176,3.1495098 C133.328431,3.24754902 133.581863,3.38578431 133.8,3.56813725 C134.020588,3.7495098 134.195098,3.97254902 134.326961,4.23823529 C134.457843,4.50441176 134.531373,4.80637255 134.548529,5.14362745 L133.72451,5.14362745" id="Fill-17" fill="#165590"></path>
                    <path d="M136.662255,3.89068627 L135.395588,3.89068627 L135.395588,3.19362745 L136.662255,3.19362745 L136.662255,1.83921569 L137.420588,1.51029412 L137.420588,3.19362745 L138.864706,3.19362745 L138.864706,3.89068627 L137.420588,3.89068627 L137.420588,8.14313725 C137.404412,8.74264706 137.696569,9.04215686 138.294608,9.04215686 C138.412745,9.04215686 138.526961,9.0377451 138.636275,9.02941176 C138.746569,9.02009804 138.851961,8.99901961 138.953431,8.96568627 L138.953431,9.6245098 C138.834804,9.65833333 138.707843,9.68480392 138.573529,9.70588235 C138.437255,9.72647059 138.307353,9.7372549 138.181863,9.7372549 C137.776471,9.7372549 137.469608,9.68039216 137.264216,9.56764706 C137.055882,9.45245098 136.908333,9.30245098 136.820098,9.11813725 C136.731863,8.93186275 136.682843,8.72990196 136.675,8.51029412 C136.666667,8.29068627 136.662255,8.07205882 136.662255,7.85147059 L136.662255,3.89068627" id="Fill-18" fill="#165590"></path>
                </g>
            </g>
        </g>
    </g>
</svg>