<?xml version="1.0" encoding="utf-8"?>
<!-- Generator: Adobe Illustrator 27.3.1, SVG Export Plug-In . SVG Version: 6.00 Build 0)  -->
<svg version="1.1" xmlns="http://www.w3.org/2000/svg" xmlns:xlink="http://www.w3.org/1999/xlink" x="0px" y="0px"
	 viewBox="0 0 208.4 85.9" style="enable-background:new 0 0 208.4 85.9;" xml:space="preserve">
<style type="text/css">
	.st0{display:none;}
	.st1{display:inline;fill:#FBCFBB;}
</style>
<g id="Calque_3">
</g>
<g id="Ebene_1">
	<g>
		<g>
			<g>
				<path d="M80.3,54h-2.2V42.1c0-3.9-1.8-5.6-4.6-5.6c-3.6,0-5.2,3.7-5.2,3.7V54H66V34.9h2v3.2c0,0,1.7-3.7,5.9-3.7
					c2.3,0,4.7,1,5.8,3.7c0.1-0.3,1.9-3.7,6.1-3.7c2.9,0,6.3,1.7,6.3,7V54H90V42.1c0-3.9-1.8-5.6-4.7-5.6c-3.6,0-5.1,3.7-5.1,3.7V54
					z"/>
				<path d="M115.7,44.4c0,5.5-4,10.1-9.7,10.1s-9.7-4.5-9.7-10.1s4-10.1,9.7-10.1S115.7,38.9,115.7,44.4z M113.4,44.4
					c0-4.3-2.7-7.9-7.5-7.9c-4.8,0-7.5,3.6-7.5,7.9s2.7,7.9,7.5,7.9C110.8,52.4,113.4,48.8,113.4,44.4z"/>
				<path d="M120.2,54V27.2h2.1v10.7c0.5-0.8,2.6-3.5,6.9-3.5c5.3,0,9.5,4.1,9.5,10.1c0,5.9-4.2,10.1-9.5,10.1c-5,0-7.1-3.7-7.1-3.7
					V54H120.2z M122.4,48.3c0,0,1.9,4.1,6.9,4.1c4.3,0,7.2-3.5,7.2-7.9s-3-7.9-7.2-7.9c-4.9,0-6.9,4.1-6.9,4.1V48.3z"/>
				<path d="M145.4,27c0.9,0,1.7,0.8,1.7,1.7c0,0.9-0.8,1.7-1.7,1.7c-0.9,0-1.7-0.8-1.7-1.7C143.7,27.8,144.5,27,145.4,27z
					 M144.3,34.9h2.2V54h-2.2V34.9z"/>
				<path d="M153.3,27.2h2.1V54h-2.2L153.3,27.2z"/>
				<path d="M178.6,44.4c0,0.4,0,0.4,0,0.9h-16.5c0.2,2.9,2.6,7,7.6,7c2.9,0,5.2-1.6,6.5-3.3l1.5,1.5c-1.8,2.2-4.9,3.9-8,3.9
					c-5.7,0-9.8-4.6-9.8-10.1c0-5.4,3.7-10.1,9.4-10.1C174.4,34.4,178.6,38.6,178.6,44.4z M176.3,43.3c-0.1-2.2-2-6.8-7-6.8
					c-5.3,0-7.1,4.7-7.2,6.8H176.3z"/>
			</g>
		</g>
		<g>
			<g>
				<path d="M50.4,48.3c-0.5,1.2-1.2,2.2-2.1,3.1c0.1,0.3,0.2,0.7,0.3,1.2c0.2,2,4.6,1.7,4.8,1.3C53.6,53.6,53.1,49.7,50.4,48.3"/>
				<path d="M41.7,54.3c-0.6,0-1.1-0.1-1.7-0.2c0,1.8,1.2,3.4,3,3.7c0.8,0.1,1.5-0.1,2.2-0.4c-0.1,0-0.1,0-0.2,0
					c-1.6-0.3-2.1-1.6-2-3.3C42.6,54.3,42.1,54.3,41.7,54.3"/>
				<path d="M29.9,53.9c0.2,0.4,4.5,0.8,4.7-1.2c0.1-0.5,0.1-0.9,0.3-1.2c-0.9-0.9-1.6-2-2.1-3.1C30.1,49.6,29.7,53.5,29.9,53.9"/>
				<path d="M32.9,39.9c0.5-1.2,1.3-2.3,2.3-3.2c-2-1.7-5.5-1.8-5.8-1.6c-0.4,0.3-0.3,4.5,1.7,4.5C31.7,39.5,32.4,39.7,32.9,39.9"/>
				<path d="M44.5,32.5c0-0.5,0.5-1.3,0.5-1.7c0-0.4-1.3-1.1-1.8-1.6c-0.5-0.5-1.1-1.5-1.5-1.5h0c-0.4,0-1,1-1.5,1.5
					c-0.6,0.5-1.8,1.2-1.8,1.6c0,0.4,0.5,1.2,0.5,1.7c0,0.5-0.2,0.9-0.3,1.3c0,0.2,0.1,0.3,0.3,0.7c0,0,0.1,0,0.1,0
					c0.9-0.3,1.9-0.4,2.8-0.4c1,0,1.9,0.2,2.8,0.4c0,0,0.1,0,0.1,0c0.2-0.4,0.3-0.5,0.3-0.7C44.7,33.4,44.5,33,44.5,32.5"/>
				<path d="M48.9,40.6c-0.5-1.1-1.1-2-1.9-2.8c-1.3-1.3-3-2-4.8-2.2c-0.2,0-0.4,0-0.6,0c-0.2,0-0.4,0-0.6,0
					c-1.8,0.1-3.4,0.9-4.8,2.2c-0.8,0.8-1.5,1.7-1.9,2.8c-0.5,1.1-0.8,2.4-0.8,3.6c0,1.2,0.2,2.4,0.7,3.5c0.4,1,1,1.8,1.7,2.6
					c1.2,1.3,2.7,2.1,4.3,2.4c0.5,0.1,1,0.1,1.4,0.1c0.2,0,0.4,0,0.6,0c1.9-0.1,3.8-1,5.1-2.5c0.7-0.7,1.3-1.6,1.7-2.6
					c0.5-1.1,0.7-2.3,0.7-3.5C49.7,43,49.4,41.7,48.9,40.6"/>
				<path d="M53.9,35.1c-0.3-0.2-3.8-0.1-5.8,1.6c0.9,0.9,1.7,2,2.3,3.2c0.5-0.2,1.1-0.4,1.8-0.3C54.2,39.6,54.3,35.4,53.9,35.1"/>
			</g>
		</g>
	</g>
</g>
<g id="Ebene_2" class="st0">
	<rect x="0" y="57.6" class="st1" width="28.3" height="28.3"/>
	<rect x="180" y="0" class="st1" width="28.3" height="28.3"/>
</g>
</svg>
