<?xml version="1.0" encoding="utf-8"?>
<!-- Generator: Adobe Illustrator 27.2.0, SVG Export Plug-In . SVG Version: 6.00 Build 0)  -->
<svg version="1.1" xmlns="http://www.w3.org/2000/svg" xmlns:xlink="http://www.w3.org/1999/xlink" x="0px" y="0px"
	 viewBox="0 0 346.2 86.1" style="enable-background:new 0 0 346.2 86.1;" xml:space="preserve">
<style type="text/css">
	.st0{fill:none;}
	.st1{display:none;}
	.st2{display:inline;fill:#FBCFBB;}
</style>
<g id="Calque_3">
</g>
<g id="Ebene_1">
	<rect x="304.7" y="82.9" class="st0" width="0.6" height="0"/>
	<g>
		<g>
			<path d="M180.9,51.5c0,1.6-1.6,2.4-3.4,2.4c-3,0-3.8-3-3.8-3l-3.1,1.4c0,0,1,4.9,6.9,4.9c4.3,0,7-2.4,7-5.7
				c0-3.8-2.7-5.1-5.8-6.3c-2.8-1.1-4.2-1.7-4.2-3.3c0-1.3,1.2-2.4,3.2-2.4c2.8,0,3.7,2.7,3.7,2.7l3.1-1.4c0,0-1.2-4.6-6.8-4.6
				c-4.3,0-6.7,2.7-6.7,5.7c0,3.6,3,5.3,6.1,6.4C179.4,49.1,180.9,49.8,180.9,51.5 M158.9,49.1c0,2.9-1.5,4.8-4.4,4.8
				c-2.9,0-4.4-1.9-4.4-4.8V36.5h-3.5v13c0,4.5,2.9,7.7,7.8,7.7c5,0,7.8-3.3,7.8-7.7v-13h-3.5V49.1z M135,56.9h4.1l-6.6-10.5
				l6.3-9.8h-4l-4.4,7.2l-4.4-7.2H122l6.3,9.8l-6.6,10.5h4l4.7-7.8L135,56.9z M106.9,40.6l3,8.4h-6.1L106.9,40.6z M97.2,56.9h3.7
				l1.7-4.7h8.5l1.7,4.7h3.8l-7.8-20.3H105L97.2,56.9z M80.1,56.9h12.2v-3.3h-8.7v-17h-3.5V56.9z M63.8,40.6l3,8.4h-6.1L63.8,40.6z
				 M54.1,56.9h3.7l1.7-4.7h8.5l1.7,4.7h3.8l-7.8-20.3h-3.9L54.1,56.9z M40.5,53.9c-4.2,0-7.2-3.3-7.2-7.2s3.1-7.2,7.2-7.2
				c3.5,0,5.4,2.3,5.4,2.3l2.3-2.5c0,0-2.5-3.1-7.7-3.1c-6,0-10.7,4.5-10.7,10.5c0,6,4.8,10.5,10.8,10.5c4.9,0,7.8-2.2,7.8-2.2v-9.6
				h-8.1v3.3h4.7V53C44.9,53,43.5,53.9,40.5,53.9"/>
		</g>
		<g>
			<path d="M216.2,56.4H214v-12c0-3.9-1.8-5.6-4.7-5.6c-3.6,0-5.3,3.7-5.3,3.7v13.9h-2.2V37.2h2v3.2c0,0,1.7-3.8,6-3.8
				c2.4,0,4.7,1.1,5.8,3.8c0.1-0.3,1.9-3.8,6.2-3.8c3,0,6.4,1.7,6.4,7.1v12.6h-2.2v-12c0-3.9-1.8-5.6-4.7-5.6
				c-3.6,0-5.1,3.7-5.1,3.7V56.4z"/>
			<path d="M251.8,46.8c0,5.6-4,10.1-9.8,10.1c-5.7,0-9.8-4.6-9.8-10.1s4-10.1,9.8-10.1C247.8,36.7,251.8,41.2,251.8,46.8z
				 M249.5,46.8c0-4.3-2.7-8-7.5-8c-4.8,0-7.5,3.6-7.5,8s2.7,8,7.5,8C246.8,54.7,249.5,51.1,249.5,46.8z"/>
			<path d="M256.3,56.4V29.4h2.1v10.8c0.5-0.8,2.6-3.5,7-3.5c5.4,0,9.6,4.1,9.6,10.1c0,6-4.2,10.1-9.6,10.1c-5.1,0-7.1-3.8-7.1-3.8
				v3.2H256.3z M258.5,50.6c0,0,1.9,4.1,6.9,4.1c4.3,0,7.3-3.5,7.3-8s-3-8-7.3-8c-5,0-6.9,4.1-6.9,4.1V50.6z"/>
			<path d="M281.7,29.2c0.9,0,1.7,0.8,1.7,1.7s-0.8,1.7-1.7,1.7c-0.9,0-1.7-0.8-1.7-1.7S280.8,29.2,281.7,29.2z M280.6,37.2h2.2
				v19.2h-2.2V37.2z"/>
			<path d="M289.6,29.4h2.1v26.9h-2.2L289.6,29.4z"/>
			<path d="M315,46.8c0,0.4,0,0.4,0,0.9h-16.6c0.2,2.9,2.6,7.1,7.7,7.1c3,0,5.3-1.6,6.6-3.3l1.5,1.5c-1.9,2.2-4.9,3.9-8,3.9
				c-5.7,0-9.9-4.6-9.9-10.1c0-5.4,3.8-10.1,9.5-10.1C310.8,36.7,315,40.9,315,46.8z M312.8,45.6c-0.1-2.2-2-6.8-7-6.8
				c-5.4,0-7.1,4.7-7.2,6.8H312.8z"/>
		</g>
	</g>
</g>
<g id="Ebene_2" class="st1">
	<rect x="0.6" y="57.5" class="st2" width="28.4" height="28.4"/>
	<rect x="318.4" y="0.8" class="st2" width="28.4" height="28.4"/>
</g>
</svg>
