<?xml version="1.0"?>
<svg width="285.5" height="28.25" xmlns="http://www.w3.org/2000/svg" xmlns:svg="http://www.w3.org/2000/svg" enable-background="new 0 0 346.2 86.1" version="1.1" xml:space="preserve">
 <style type="text/css">.st0{fill:none;}
	.st1{display:none;}
	.st2{display:inline;fill:#FBCFBB;}</style>
 <g class="layer">
  <title>Layer 1</title>
  <g id="Calque_3"/>
  <g class="st1" id="Ebene_2">
   <rect class="st2" height="28.4" id="svg_12" width="28.4" x="0.6" y="57.5"/>
   <rect class="st2" height="28.4" id="svg_13" width="28.4" x="318.4" y="0.8"/>
  </g>
  <g id="Ebene_1">
   <rect class="st0" height="0" id="svg_1" width="0.6" x="274.99" y="53.84"/>
   <g id="svg_2">
    <g id="svg_3">
     <path d="m151.19,22.44c0,1.6 -1.6,2.4 -3.4,2.4c-3,0 -3.8,-3 -3.8,-3l-3.1,1.4c0,0 1,4.9 6.9,4.9c4.3,0 7,-2.4 7,-5.7c0,-3.8 -2.7,-5.1 -5.8,-6.3c-2.8,-1.1 -4.2,-1.7 -4.2,-3.3c0,-1.3 1.2,-2.4 3.2,-2.4c2.8,0 3.7,2.7 3.7,2.7l3.1,-1.4c0,0 -1.2,-4.6 -6.8,-4.6c-4.3,0 -6.7,2.7 -6.7,5.7c0,3.6 3,5.3 6.1,6.4c2.3,0.8 3.8,1.5 3.8,3.2m-22,-2.4c0,2.9 -1.5,4.8 -4.4,4.8c-2.9,0 -4.4,-1.9 -4.4,-4.8l0,-12.6l-3.5,0l0,13c0,4.5 2.9,7.7 7.8,7.7c5,0 7.8,-3.3 7.8,-7.7l0,-13l-3.5,0l0,12.6l0.2,0zm-23.9,7.8l4.1,0l-6.6,-10.5l6.3,-9.8l-4,0l-4.4,7.2l-4.4,-7.2l-4,0l6.3,9.8l-6.6,10.5l4,0l4.7,-7.8l4.6,7.8zm-28.1,-16.3l3,8.4l-6.1,0l3.1,-8.4zm-9.7,16.3l3.7,0l1.7,-4.7l8.5,0l1.7,4.7l3.8,0l-7.8,-20.3l-3.8,0l-7.8,20.3zm-17.1,0l12.2,0l0,-3.3l-8.7,0l0,-17l-3.5,0l0,20.3zm-16.3,-16.3l3,8.4l-6.1,0l3.1,-8.4zm-9.7,16.3l3.7,0l1.7,-4.7l8.5,0l1.7,4.7l3.8,0l-7.8,-20.3l-3.9,0l-7.7,20.3zm-13.6,-3c-4.2,0 -7.2,-3.3 -7.2,-7.2s3.1,-7.2 7.2,-7.2c3.5,0 5.4,2.3 5.4,2.3l2.3,-2.5c0,0 -2.5,-3.1 -7.7,-3.1c-6,0 -10.7,4.5 -10.7,10.5c0,6 4.8,10.5 10.8,10.5c4.9,0 7.8,-2.2 7.8,-2.2l0,-9.6l-8.1,0l0,3.3l4.7,0l0,4.3c-0.1,0 -1.5,0.9 -4.5,0.9" id="svg_4"/>
    </g>
    <g id="svg_5">
     <path d="m186.49,27.34l-2.2,0l0,-12c0,-3.9 -1.8,-5.6 -4.7,-5.6c-3.6,0 -5.3,3.7 -5.3,3.7l0,13.9l-2.2,0l0,-19.2l2,0l0,3.2c0,0 1.7,-3.8 6,-3.8c2.4,0 4.7,1.1 5.8,3.8c0.1,-0.3 1.9,-3.8 6.2,-3.8c3,0 6.4,1.7 6.4,7.1l0,12.6l-2.2,0l0,-12c0,-3.9 -1.8,-5.6 -4.7,-5.6c-3.6,0 -5.1,3.7 -5.1,3.7l0,14z" id="svg_6"/>
     <path d="m222.09,17.74c0,5.6 -4,10.1 -9.8,10.1c-5.7,0 -9.8,-4.6 -9.8,-10.1s4,-10.1 9.8,-10.1c5.8,0 9.8,4.5 9.8,10.1zm-2.3,0c0,-4.3 -2.7,-8 -7.5,-8c-4.8,0 -7.5,3.6 -7.5,8s2.7,8 7.5,8c4.8,-0.1 7.5,-3.7 7.5,-8z" id="svg_7"/>
     <path d="m226.59,27.34l0,-27l2.1,0l0,10.8c0.5,-0.8 2.6,-3.5 7,-3.5c5.4,0 9.6,4.1 9.6,10.1c0,6 -4.2,10.1 -9.6,10.1c-5.1,0 -7.1,-3.8 -7.1,-3.8l0,3.2l-2,0l0,0.1zm2.2,-5.8c0,0 1.9,4.1 6.9,4.1c4.3,0 7.3,-3.5 7.3,-8s-3,-8 -7.3,-8c-5,0 -6.9,4.1 -6.9,4.1l0,7.8z" id="svg_8"/>
     <path d="m251.99,0.14c0.9,0 1.7,0.8 1.7,1.7s-0.8,1.7 -1.7,1.7c-0.9,0 -1.7,-0.8 -1.7,-1.7s0.8,-1.7 1.7,-1.7zm-1.1,8l2.2,0l0,19.2l-2.2,0l0,-19.2z" id="svg_9"/>
     <path d="m259.89,0.34l2.1,0l0,26.9l-2.2,0l0.1,-26.9z" id="svg_10"/>
     <path d="m285.29,17.74c0,0.4 0,0.4 0,0.9l-16.6,0c0.2,2.9 2.6,7.1 7.7,7.1c3,0 5.3,-1.6 6.6,-3.3l1.5,1.5c-1.9,2.2 -4.9,3.9 -8,3.9c-5.7,0 -9.9,-4.6 -9.9,-10.1c0,-5.4 3.8,-10.1 9.5,-10.1c5,0 9.2,4.2 9.2,10.1zm-2.2,-1.2c-0.1,-2.2 -2,-6.8 -7,-6.8c-5.4,0 -7.1,4.7 -7.2,6.8l14.2,0z" id="svg_11"/>
    </g>
   </g>
  </g>
 </g>
</svg>