<?xml version="1.0"?>
<svg width="149.8" height="31.3" xmlns="http://www.w3.org/2000/svg" xmlns:svg="http://www.w3.org/2000/svg" enable-background="new 0 0 208.4 85.9" version="1.1" xml:space="preserve">
 <style type="text/css">.st0{display:none;}
	.st1{display:inline;fill:#FBCFBB;}</style>
 <g class="layer">
  <title>Layer 1</title>
  <g id="Calque_3"/>
  <g id="Ebene_1">
   <g id="svg_1">
    <g id="svg_2">
     <g id="svg_3">
      <path d="m51.3,27.2l-2.2,0l0,-11.9c0,-3.9 -1.8,-5.6 -4.6,-5.6c-3.6,0 -5.2,3.7 -5.2,3.7l0,13.8l-2.3,0l0,-19.1l2,0l0,3.2c0,0 1.7,-3.7 5.9,-3.7c2.3,0 4.7,1 5.8,3.7c0.1,-0.3 1.9,-3.7 6.1,-3.7c2.9,0 6.3,1.7 6.3,7l0,12.6l-2.1,0l0,-11.9c0,-3.9 -1.8,-5.6 -4.7,-5.6c-3.6,0 -5.1,3.7 -5.1,3.7l0,13.8l0.1,0z" id="svg_4"/>
      <path d="m86.7,17.6c0,5.5 -4,10.1 -9.7,10.1s-9.7,-4.5 -9.7,-10.1s4,-10.1 9.7,-10.1s9.7,4.6 9.7,10.1zm-2.3,0c0,-4.3 -2.7,-7.9 -7.5,-7.9c-4.8,0 -7.5,3.6 -7.5,7.9s2.7,7.9 7.5,7.9c4.9,0.1 7.5,-3.5 7.5,-7.9z" id="svg_5"/>
      <path d="m91.2,27.2l0,-26.8l2.1,0l0,10.7c0.5,-0.8 2.6,-3.5 6.9,-3.5c5.3,0 9.5,4.1 9.5,10.1c0,5.9 -4.2,10.1 -9.5,10.1c-5,0 -7.1,-3.7 -7.1,-3.7l0,3.1l-1.9,0zm2.2,-5.7c0,0 1.9,4.1 6.9,4.1c4.3,0 7.2,-3.5 7.2,-7.9s-3,-7.9 -7.2,-7.9c-4.9,0 -6.9,4.1 -6.9,4.1l0,7.6z" id="svg_6"/>
      <path d="m116.4,0.2c0.9,0 1.7,0.8 1.7,1.7c0,0.9 -0.8,1.7 -1.7,1.7c-0.9,0 -1.7,-0.8 -1.7,-1.7c0,-0.9 0.8,-1.7 1.7,-1.7zm-1.1,7.9l2.2,0l0,19.1l-2.2,0l0,-19.1z" id="svg_7"/>
      <path d="m124.3,0.4l2.1,0l0,26.8l-2.2,0l0.1,-26.8z" id="svg_8"/>
      <path d="m149.6,17.6c0,0.4 0,0.4 0,0.9l-16.5,0c0.2,2.9 2.6,7 7.6,7c2.9,0 5.2,-1.6 6.5,-3.3l1.5,1.5c-1.8,2.2 -4.9,3.9 -8,3.9c-5.7,0 -9.8,-4.6 -9.8,-10.1c0,-5.4 3.7,-10.1 9.4,-10.1c5.1,0.2 9.3,4.4 9.3,10.2zm-2.3,-1.1c-0.1,-2.2 -2,-6.8 -7,-6.8c-5.3,0 -7.1,4.7 -7.2,6.8l14.2,0z" id="svg_9"/>
     </g>
    </g>
    <g id="svg_10">
     <g id="svg_11">
      <path d="m21.4,21.5c-0.5,1.2 -1.2,2.2 -2.1,3.1c0.1,0.3 0.2,0.7 0.3,1.2c0.2,2 4.6,1.7 4.8,1.3c0.2,-0.3 -0.3,-4.2 -3,-5.6" id="svg_12"/>
      <path d="m12.7,27.5c-0.6,0 -1.1,-0.1 -1.7,-0.2c0,1.8 1.2,3.4 3,3.7c0.8,0.1 1.5,-0.1 2.2,-0.4c-0.1,0 -0.1,0 -0.2,0c-1.6,-0.3 -2.1,-1.6 -2,-3.3c-0.4,0.2 -0.9,0.2 -1.3,0.2" id="svg_13"/>
      <path d="m0.9,27.1c0.2,0.4 4.5,0.8 4.7,-1.2c0.1,-0.5 0.1,-0.9 0.3,-1.2c-0.9,-0.9 -1.6,-2 -2.1,-3.1c-2.7,1.2 -3.1,5.1 -2.9,5.5" id="svg_14"/>
      <path d="m3.9,13.1c0.5,-1.2 1.3,-2.3 2.3,-3.2c-2,-1.7 -5.5,-1.8 -5.8,-1.6c-0.4,0.3 -0.3,4.5 1.7,4.5c0.6,-0.1 1.3,0.1 1.8,0.3" id="svg_15"/>
      <path d="m15.5,5.7c0,-0.5 0.5,-1.3 0.5,-1.7c0,-0.4 -1.3,-1.1 -1.8,-1.6c-0.5,-0.5 -1.1,-1.5 -1.5,-1.5l0,0c-0.4,0 -1,1 -1.5,1.5c-0.6,0.5 -1.8,1.2 -1.8,1.6c0,0.4 0.5,1.2 0.5,1.7c0,0.5 -0.2,0.9 -0.3,1.3c0,0.2 0.1,0.3 0.3,0.7c0,0 0.1,0 0.1,0c0.9,-0.3 1.9,-0.4 2.8,-0.4c1,0 1.9,0.2 2.8,0.4c0,0 0.1,0 0.1,0c0.2,-0.4 0.3,-0.5 0.3,-0.7c-0.3,-0.4 -0.5,-0.8 -0.5,-1.3" id="svg_16"/>
      <path d="m19.9,13.8c-0.5,-1.1 -1.1,-2 -1.9,-2.8c-1.3,-1.3 -3,-2 -4.8,-2.2c-0.2,0 -0.4,0 -0.6,0c-0.2,0 -0.4,0 -0.6,0c-1.8,0.1 -3.4,0.9 -4.8,2.2c-0.8,0.8 -1.5,1.7 -1.9,2.8c-0.5,1.1 -0.8,2.4 -0.8,3.6c0,1.2 0.2,2.4 0.7,3.5c0.4,1 1,1.8 1.7,2.6c1.2,1.3 2.7,2.1 4.3,2.4c0.5,0.1 1,0.1 1.4,0.1c0.2,0 0.4,0 0.6,0c1.9,-0.1 3.8,-1 5.1,-2.5c0.7,-0.7 1.3,-1.6 1.7,-2.6c0.5,-1.1 0.7,-2.3 0.7,-3.5c0,-1.2 -0.3,-2.5 -0.8,-3.6" id="svg_17"/>
      <path d="m24.9,8.3c-0.3,-0.2 -3.8,-0.1 -5.8,1.6c0.9,0.9 1.7,2 2.3,3.2c0.5,-0.2 1.1,-0.4 1.8,-0.3c2,0 2.1,-4.2 1.7,-4.5" id="svg_18"/>
     </g>
    </g>
   </g>
   <g id="svg_39"/>
  </g>
 </g>
</svg>